<svg height="512" viewBox="0 0 512 512" width="512" xmlns="http://www.w3.org/2000/svg"><path d="m327.991 297.565v-83.136l-71.998-41.568-71.998 41.568v83.136l71.998 41.568z" fill="#bef5fa"/><g fill="#b6eaef"><path d="m287.993 274.468v-36.951l-32-18.475-32 18.475v36.951l32 18.475z"/><path d="m460.911 365.066-14.827-8.561 11.557-5.74a8 8 0 1 0 -7.117-14.328l-21.073 10.463-12.751-7.361 19.049-12.579a8 8 0 1 0 -8.813-13.351l-25.729 16.991-45.126-26.06 25.852-12.783 14.767 8.528a8 8 0 1 0 8-13.86l-5.529-3.192 21.076-10.421a8 8 0 1 0 -7.094-14.344l-23.02 11.383-.062-8.434a7.693 7.693 0 0 0 -2.063-5.041 7.937 7.937 0 0 0 2.258-5.463l.063-8.675 22.824 11.285a8 8 0 1 0 7.094-14.344l-20.655-10.213 5.3-3.06a8 8 0 1 0 -8-13.86l-14.542 8.4-26.269-12.996 45.126-26.05 25.727 16.986a8 8 0 0 0 8.813-13.352l-19.047-12.582 12.738-7.354 21.162 10.602a7.913 7.913 0 0 0 3.574.848 8 8 0 0 0 3.59-15.152l-11.729-5.877 14.881-8.592a8 8 0 1 0 -8-13.86l-14.827 8.561.807-12.881a8 8 0 0 0 -15.968-1l-1.474 23.486-12.754 7.361-1.37-22.79a7.9 7.9 0 0 0 -8.465-7.5 8 8 0 0 0 -7.5 8.465l1.848 30.773-45.128 26.055 1.857-28.784 14.767-8.525a8 8 0 1 0 -8-13.859l-5.529 3.193 1.513-23.463a8 8 0 1 0 -15.969-1.031l-1.653 25.632-7.335-4.163a7.872 7.872 0 0 0 -5.434-.8 7.936 7.936 0 0 0 -3.566-4.623l-7.484-4.395 21.187-14.125a8 8 0 1 0 -8.875-13.312l-19.172 12.782v-6.124a8 8 0 0 0 -16 0v16.793l-24.39 16.26v-52.113l27.578-13.789a8 8 0 0 0 -7.156-14.312l-20.431 10.211v-14.707l19.761-13.024a8 8 0 1 0 -8.8-13.359l-10.957 7.22v-17.18a8 8 0 0 0 -16 0v17.116l-10.75-7.141a8 8 0 0 0 -8.856 13.325l19.6 13.02v14.73l-20.42-10.211a8 8 0 1 0 -7.157 14.312l27.579 13.789v52.108l-24-16v-17.048a8 8 0 0 0 -16 0v6.386l-19.563-13.047a8 8 0 1 0 -8.875 13.312l21.371 14.249-7.277 4.272a7.878 7.878 0 0 0 -3.412 4.3 7.918 7.918 0 0 0 -5.784.779l-7.544 4.283-1.639-25.412a8 8 0 0 0 -15.969 1.031l1.483 23-5.3-3.061a8 8 0 1 0 -8 13.855l14.541 8.4 1.887 29.251-45.128-26.055 1.848-30.773a8 8 0 0 0 -7.5-8.465 7.866 7.866 0 0 0 -8.465 7.5l-1.369 22.79-12.748-7.356-1.4-23.623a8 8 0 0 0 -15.969.946l.775 13.1-14.885-8.594a8 8 0 0 0 -8 13.86l14.827 8.56-11.557 5.741a8 8 0 1 0 7.117 14.328l21.073-10.465 12.754 7.363-19.047 12.575a8 8 0 1 0 8.813 13.352l25.728-16.982 45.126 26.054-25.853 12.784-14.767-8.528a8 8 0 0 0 -8 13.86l5.53 3.192-21.077 10.417a8 8 0 0 0 7.094 14.344l23.021-11.383.061 8.434a7.862 7.862 0 0 0 1.974 5.045 8.27 8.27 0 0 0 -2.169 5.458l-.063 8.676-22.824-11.285a8 8 0 0 0 -7.094 14.344l20.655 10.213-5.3 3.06a8 8 0 0 0 8 13.86l14.543-8.395 26.272 12.99-45.129 26.06-25.728-16.991a8 8 0 1 0 -8.813 13.351l19.05 12.579-12.739 7.354-21.158-10.6a8 8 0 1 0 -7.164 14.307l11.729 5.877-14.882 8.592a8 8 0 0 0 8 13.859l14.827-8.56-.807 12.881a8 8 0 0 0 7.484 8.484c.168.012.34.016.508.016a8 8 0 0 0 7.977-7.5l1.473-23.486 12.755-7.364 1.369 22.791a8 8 0 0 0 7.977 7.52c.16 0 .324 0 .488-.016a8 8 0 0 0 7.5-8.465l-1.848-30.773 45.132-26.056-1.857 28.785-14.767 8.525a8 8 0 0 0 8 13.859l5.529-3.193-1.514 23.459a8 8 0 0 0 7.469 8.5c.176.011.351.015.523.015a8 8 0 0 0 7.977-7.484l1.653-25.633 7.335 4.164a7.888 7.888 0 0 0 5.438.8 7.935 7.935 0 0 0 3.562 4.617l7.485 4.394-21.188 14.125a8 8 0 1 0 8.875 13.313l19.171-12.776v6.13a8 8 0 0 0 16 0v-16.8l24.391-16.261v52.111l-27.579 13.789a8 8 0 0 0 7.157 14.313l20.422-10.211v14.707l-19.762 13.024a8 8 0 0 0 8.805 13.359l10.957-7.22v17.189a8 8 0 0 0 16 0v-17.125l10.75 7.14a8 8 0 1 0 8.851-13.328l-19.6-13.02v-14.726l20.422 10.211a8 8 0 0 0 7.156-14.313l-27.577-13.789v-52.108l24 16v17.058a8 8 0 0 0 16 0v-6.39l19.562 13.042a8 8 0 0 0 8.875-13.313l-21.37-14.247 7.277-4.272a7.888 7.888 0 0 0 3.415-4.309 7.945 7.945 0 0 0 5.78-.773l7.544-4.283 1.639 25.412a8 8 0 0 0 7.977 7.484c.172 0 .348 0 .523-.015a8 8 0 0 0 7.469-8.5l-1.483-23 5.3 3.062a8 8 0 1 0 8-13.856l-14.542-8.4-1.883-29.242 45.124 26.053-1.848 30.773a8 8 0 0 0 7.5 8.465c.164.012.328.016.488.016a8 8 0 0 0 7.977-7.52l1.383-22.787 12.74 7.356 1.4 23.623a8 8 0 0 0 7.976 7.527c.161 0 .321 0 .481-.016a8 8 0 0 0 7.512-8.457l-.775-13.1 14.884 8.593a8 8 0 1 0 8-13.859zm-86.524-130.711-.121 16.441a7.893 7.893 0 0 0 2 5.222 7.949 7.949 0 0 0 -2.2 5.516l.119 16.2-34.765 17.19-3.436-1.984v-73.889l3.436-1.984zm-77.941-91.714 14.18 8.327a7.331 7.331 0 0 0 5.539.91 7.933 7.933 0 0 0 3.664 4.629l14.088 8-2.5 38.706-3.431 1.981-64-36.949v-3.966zm-40.453 187.253-64-36.945v-73.9l64-36.945 64 36.945v73.9zm-77.939-165.611 14.3-8.116a7.889 7.889 0 0 0 3.517-4.333 8.064 8.064 0 0 0 1.838.235 7.977 7.977 0 0 0 4.043-1.1l13.973-8.2 32.27 21.513v3.966l-64 36.949-3.43-1.981zm-40.454 113.353.121-16.441a7.9 7.9 0 0 0 -2-5.223 7.946 7.946 0 0 0 2.2-5.516l-.119-16.2 34.765-17.19 3.433 1.985v73.889l-3.436 1.984zm77.941 91.714-14.179-8.327a7.89 7.89 0 0 0 -5.526-.88 7.933 7.933 0 0 0 -3.677-4.659l-14.089-8 2.5-38.706 3.427-1.979 64 36.95v3.962zm118.392-21.643-14.3 8.117a7.881 7.881 0 0 0 -3.519 4.34 7.92 7.92 0 0 0 -5.879.859l-13.972 8.2-32.27-21.514v-3.962l64-36.95 3.427 1.979z"/></g></svg>